<mxfile host="app.diagrams.net" modified="2022-04-30T14:24:54.101Z" agent="5.0 (Windows NT 10.0; Win64; x64) AppleWebKit/537.36 (KHTML, like Gecko) Chrome/100.0.4896.127 Safari/537.36" etag="pzKSTHI9zHqZMuotp-sG" version="17.5.0" type="github">
  <diagram id="-Hrql3rXgw8_1QajB7P_" name="Page-1">
    <mxGraphModel dx="1422" dy="762" grid="1" gridSize="10" guides="1" tooltips="1" connect="1" arrows="1" fold="1" page="1" pageScale="1" pageWidth="827" pageHeight="1169" math="0" shadow="0">
      <root>
        <mxCell id="0" />
        <mxCell id="1" parent="0" />
        <mxCell id="0_b8nFMJkuA_B6QsZU8I-5" style="edgeStyle=orthogonalEdgeStyle;rounded=0;orthogonalLoop=1;jettySize=auto;html=1;" edge="1" parent="1" source="0_b8nFMJkuA_B6QsZU8I-1" target="0_b8nFMJkuA_B6QsZU8I-2">
          <mxGeometry relative="1" as="geometry" />
        </mxCell>
        <mxCell id="0_b8nFMJkuA_B6QsZU8I-1" value="Překlad" style="shape=step;perimeter=stepPerimeter;whiteSpace=wrap;html=1;fixedSize=1;" vertex="1" parent="1">
          <mxGeometry x="120" y="80" width="120" height="50" as="geometry" />
        </mxCell>
        <mxCell id="0_b8nFMJkuA_B6QsZU8I-4" style="edgeStyle=orthogonalEdgeStyle;rounded=0;orthogonalLoop=1;jettySize=auto;html=1;" edge="1" parent="1" source="0_b8nFMJkuA_B6QsZU8I-2" target="0_b8nFMJkuA_B6QsZU8I-3">
          <mxGeometry relative="1" as="geometry" />
        </mxCell>
        <mxCell id="0_b8nFMJkuA_B6QsZU8I-2" value="Testování" style="shape=step;perimeter=stepPerimeter;whiteSpace=wrap;html=1;fixedSize=1;" vertex="1" parent="1">
          <mxGeometry x="280" y="80" width="120" height="50" as="geometry" />
        </mxCell>
        <mxCell id="0_b8nFMJkuA_B6QsZU8I-3" value="Vyhodnocení&lt;br&gt;pokrytí" style="shape=step;perimeter=stepPerimeter;whiteSpace=wrap;html=1;fixedSize=1;" vertex="1" parent="1">
          <mxGeometry x="440" y="80" width="120" height="50" as="geometry" />
        </mxCell>
      </root>
    </mxGraphModel>
  </diagram>
</mxfile>
